<svg xmlns="http://www.w3.org/2000/svg" width="32" height="32" viewBox="0 0 32 32">
  <g id="Group_8" data-name="Group 8" transform="translate(-41 -774)">
    <g id="Rectangle_22" data-name="Rectangle 22" transform="translate(41 774)" fill="gold" stroke="gold" stroke-width="1">
      <rect width="32" height="32" rx="6" stroke="none"/>
      <rect x="0.5" y="0.5" width="31" height="31" rx="5.5" fill="none"/>
    </g>
    <g id="github-sign" transform="translate(45 777.518)">
      <g id="Group_7" data-name="Group 7">
        <path id="Path_22" data-name="Path 22" d="M22.68,1.32A4.334,4.334,0,0,0,19.5,0H4.5A4.335,4.335,0,0,0,1.32,1.32,4.335,4.335,0,0,0,0,4.5v15a4.334,4.334,0,0,0,1.32,3.18A4.335,4.335,0,0,0,4.5,24H8a4.225,4.225,0,0,0,.516-.023.6.6,0,0,0,.344-.2.728.728,0,0,0,.172-.523q0-.047-.008-1.063t-.008-1.61l-.359.063a4.6,4.6,0,0,1-.867.055A6.673,6.673,0,0,1,6.7,20.586a2.434,2.434,0,0,1-1.047-.469,1.983,1.983,0,0,1-.687-.961l-.156-.36A3.9,3.9,0,0,0,4.32,18a1.886,1.886,0,0,0-.68-.594l-.109-.078a1.149,1.149,0,0,1-.2-.188.868.868,0,0,1-.141-.219q-.047-.11.078-.18a1.016,1.016,0,0,1,.453-.07l.312.047a2.278,2.278,0,0,1,.774.375,2.522,2.522,0,0,1,.758.812,2.754,2.754,0,0,0,.867.976,1.838,1.838,0,0,0,1.023.336,4.439,4.439,0,0,0,.891-.078,3.111,3.111,0,0,0,.7-.235,2.533,2.533,0,0,1,.766-1.61,10.7,10.7,0,0,1-1.6-.281,6.383,6.383,0,0,1-1.469-.609,4.205,4.205,0,0,1-1.258-1.047,5.033,5.033,0,0,1-.82-1.641,7.8,7.8,0,0,1-.32-2.344A4.558,4.558,0,0,1,5.578,8.155a4.2,4.2,0,0,1,.109-3.187,2.189,2.189,0,0,1,1.344.211,9.423,9.423,0,0,1,1.3.6Q8.75,6.03,9,6.2a11.281,11.281,0,0,1,6,0l.594-.375a8.406,8.406,0,0,1,1.438-.687A2.047,2.047,0,0,1,18.3,4.968a4.159,4.159,0,0,1,.125,3.187,4.558,4.558,0,0,1,1.235,3.219,7.878,7.878,0,0,1-.32,2.352,4.827,4.827,0,0,1-.828,1.641,4.369,4.369,0,0,1-1.266,1.039,6.374,6.374,0,0,1-1.469.609,10.692,10.692,0,0,1-1.6.282,2.783,2.783,0,0,1,.812,2.219V23.25a1.006,1.006,0,0,0,.078.43.432.432,0,0,0,.25.227,1.385,1.385,0,0,0,.3.078A3.508,3.508,0,0,0,16,24h3.5A4.508,4.508,0,0,0,24,19.5V4.5A4.335,4.335,0,0,0,22.68,1.32Z"/>
      </g>
    </g>
  </g>
</svg>
