<svg xmlns="http://www.w3.org/2000/svg" width="32" height="32" viewBox="0 0 32 32">
  <g id="Group_9" data-name="Group 9" transform="translate(-97 -774)">
    <g id="Rectangle_23" data-name="Rectangle 23" transform="translate(97 774)" fill="gold" stroke="gold" stroke-width="1">
      <rect width="32" height="32" rx="6" stroke="none"/>
      <rect x="0.5" y="0.5" width="31" height="31" rx="5.5" fill="none"/>
    </g>
    <path id="twitter" d="M8.954,24a16.944,16.944,0,0,1-3.181-.309,13.378,13.378,0,0,1-4.351-1.935L0,20.807l1.54-.619a41.728,41.728,0,0,0,3.974-1.752A6.245,6.245,0,0,1,2.8,14.589L2.438,13.26l.294.055a6.464,6.464,0,0,1-.669-1.008A7.231,7.231,0,0,1,1.2,8.629l.067-1.16.568.269a7.479,7.479,0,0,1-.515-1.763A8.021,8.021,0,0,1,1.91,1.46L2.4.35l.662.971A11.858,11.858,0,0,0,10.958,6.75a6.959,6.959,0,0,1,.287-3.064,5.553,5.553,0,0,1,1.909-2.674,4.937,4.937,0,0,1,3.328-1A4.866,4.866,0,0,1,19.748,1.66a9.652,9.652,0,0,0,1.2-.488c.262-.121.56-.258.932-.414L23.247.181,22.353,3.3c.059-.006.12-.011.183-.015L24,3.205l-.865,1.445c-.05.083-.062.106-.08.139-.07.128-.157.288-1.344,2.226a3.184,3.184,0,0,0-.418,1.78,20.31,20.31,0,0,1-.752,6.772,12.392,12.392,0,0,1-2.633,4.765A10.941,10.941,0,0,1,12.4,23.588,14,14,0,0,1,8.954,24Zm0,0" transform="translate(101 778)"/>
  </g>
</svg>
