<svg xmlns="http://www.w3.org/2000/svg" width="968.846" height="501.94" viewBox="0 0 968.846 501.94">
  <g id="Group_1" data-name="Group 1" transform="translate(0 -0.079)">
    <path id="Path_21" data-name="Path 21" d="M0,0H286.653V508.157H0Z" transform="translate(344.873 281.694) rotate(-74.21)" fill="gold"/>
    <circle id="Ellipse_1" data-name="Ellipse 1" cx="4.05" cy="4.05" r="4.05" transform="translate(427.275 13.348)"/>
    <circle id="Ellipse_2" data-name="Ellipse 2" cx="4.05" cy="4.05" r="4.05" transform="translate(439.745 16.874)"/>
    <circle id="Ellipse_3" data-name="Ellipse 3" cx="4.05" cy="4.05" r="4.05" transform="translate(452.215 20.401)"/>
    <path id="Path_1" data-name="Path 1" d="M804,375.237a47.311,47.311,0,0,0-19.76.466,47.227,47.227,0,0,0,1.4-19.966,46.95,46.95,0,0,0-17.663,11.4,46.952,46.952,0,0,0-9.078-18.96,47.227,47.227,0,0,0-9.266,17.741,47.312,47.312,0,0,0-16.59-10.746s-2.949,15,4.151,27.307c6.32,10.955,18.462,16.081,21.057,17.077l.061.073.033-.037c.263.1.411.151.411.151s.056-.288.133-.8l.145-.181c.01.082.02.157.029.23-.2.478-.307.753-.307.753s.152.034.429.087l.008.049.09-.03c2.733.511,15.761,2.5,26.882-3.52C798.658,389.559,804,375.237,804,375.237Z" transform="translate(-121.615 -194.348)" fill="#fff"/>
    <path id="Path_22" data-name="Path 22" d="M10.529,0A10.529,10.529,0,1,1,0,10.529,10.529,10.529,0,0,1,10.529,0Z" transform="translate(647.622 121.515)" fill="#fff"/>
    <rect id="Rectangle_19" data-name="Rectangle 19" width="328.84" height="7.154" transform="translate(473.933 179.27) rotate(15.79)"/>
    <rect id="Rectangle_20" data-name="Rectangle 20" width="56.697" height="56.697" transform="translate(493.852 221.939) rotate(15.79)" fill="#fff"/>
    <rect id="Rectangle_21" data-name="Rectangle 21" width="56.697" height="56.697" transform="translate(595.174 250.59) rotate(15.79)" fill="#fff"/>
    <rect id="Rectangle_22" data-name="Rectangle 22" width="56.697" height="56.697" transform="translate(696.495 279.242) rotate(15.79)" fill="#fff"/>
    <rect id="Rectangle_23" data-name="Rectangle 23" width="42.118" height="4.86" transform="translate(482.354 289.392) rotate(15.79)"/>
    <rect id="Rectangle_24" data-name="Rectangle 24" width="42.118" height="4.86" transform="translate(583.675 318.043) rotate(15.79)"/>
    <rect id="Rectangle_25" data-name="Rectangle 25" width="42.118" height="4.86" transform="translate(684.996 346.695) rotate(15.79)"/>
    <ellipse id="Ellipse_5" data-name="Ellipse 5" cx="271.052" cy="10.021" rx="271.052" ry="10.021" transform="translate(5.345 368.401)" opacity="0.5"/>
    <path id="Path_20" data-name="Path 20" d="M210.924,0c116.49,0,210.924,4.487,210.924,10.021S327.414,20.043,210.924,20.043,0,15.556,0,10.021,94.434,0,210.924,0Z" transform="translate(546.998 481.976)" opacity="0.5"/>
    <path id="Path_2" data-name="Path 2" d="M778.172,621h60.851v25.448h-35.4V671.9h35.406v25.446H778.172Zm73.023,0h60.853v22.129h-35.4v4.425h35.4v50.9H851.2V675.212h35.4v-4.425H851.194V621Zm73.024,0h60.853v22.129h-35.4v4.425h35.4v50.9H924.219V675.212h35.4v-4.425h-35.4V621Z" transform="translate(-123.7 -206.787)" fill="#0c0c0c"/>
    <path id="Path_3" data-name="Path 3" d="M220.926,499h25.1v24.8h22.964V499h25.1v75.105h-25.1V548.956H246.031v25.149h-25.1V499Zm106.182,24.907h-22.1V499h69.314v24.907h-22.11v50.2h-25.1v-50.2h0ZM385.326,499H411.5l16.1,26.39L443.688,499h26.186v75.105h-25V536.878l-17.271,26.7h-.433l-17.282-26.7V574.1H385.326Zm97.04,0h25.111v50.28h35.3v24.825H482.365V499Z" transform="translate(-98.294 -201.225)" fill="#0c0c0c"/>
    <path id="Path_4" data-name="Path 4" d="M81.936,366.091l-2.06,23.352,16.483-1.374V368.152Z" transform="translate(-3.642 -16.691)" fill="#ffb8b8"/>
    <path id="Path_5" data-name="Path 5" d="M65.514,366.091l2.061,23.352-16.483-1.374V368.152Z" transform="translate(-2.329 -16.691)" fill="#ffb8b8"/>
    <path id="Path_6" data-name="Path 6" d="M200.319,365.276s5.494,32.966,5.494,37.774-2.06,35.713-5.494,41.894-4.121,8.928-2.747,11.675.687,2.06,0,4.121-2.06,1.374,0,4.121a7.216,7.216,0,0,1,0,8.242c-1.374,2.06,2.747,57.69-2.747,61.811s-6.868,17.857-6.868,17.857L170.1,550.71V535.6s-4.121-10.989-1.374-17.857,4.121-43.268,4.121-43.268-.687-3.434,0-5.494,0-3.434-1.374-4.121-2.06-3.434-2.06-3.434l-2.06-50.136-8.242,49.449s8.242,67.306,0,76.234v15.8H141.255L144,535.6s-5.494-15.8-2.747-19.23-8.242-58.377-6.868-60.438.687-2.747,0-4.121-2.747-2.747-2.06-4.121,0-4.121,0-4.121-13.049-64.558-6.868-70.74S200.319,365.276,200.319,365.276Z" transform="translate(-93.866 -195.128)" fill="#2d2d2d"/>
    <path id="Path_7" data-name="Path 7" d="M176.161,567.974s1.374-6.587,12.362-4.324c0,0,2.747,5.7,2.747,8.444s2.747,21.291,2.747,21.291,10.989,18.543-2.747,18.543-18.543-4.807-19.23-9.615.687-6.181-2.06-8.242-4.121-2.06-3.434-4.808,2.06-16.483,2.06-16.483.687-10.3,4.464-7.555l3.777,2.747" transform="translate(-95.807 -204.151)" fill="#2d2d2d"/>
    <path id="Path_8" data-name="Path 8" d="M155.429,567.974s-1.374-6.587-12.362-4.324c0,0-2.747,5.7-2.747,8.444s-2.747,21.291-2.747,21.291-10.989,18.543,2.747,18.543,18.543-4.807,19.23-9.615-.687-6.181,2.06-8.242,4.121-2.06,3.434-4.808-2.06-16.483-2.06-16.483-.687-10.3-4.464-7.555l-3.777,2.747" transform="translate(-94.304 -204.151)" fill="#2d2d2d"/>
    <circle id="Ellipse_7" data-name="Ellipse 7" cx="18.543" cy="18.543" r="18.543" transform="translate(62.498 6.691)" fill="#ffb8b8"/>
    <path id="Path_9" data-name="Path 9" d="M161.089,216.319s-7.555,29.532-8.928,30.219,31.592,3.434,31.592,3.434-8.242-25.411,0-29.532Z" transform="translate(-95.157 -188.337)" fill="#ffb8b8"/>
    <path id="Path_10" data-name="Path 10" d="M155.381,235.175v0l-22.646,15.66,4.121,122.935s30.219-3.434,37.087-2.747,28.845-6.181,28.845-6.181L193.16,249.321a9.489,9.489,0,0,0-8.788-8.677l-4.125-.291s-4.12,10.2-16.518,4.939A14.465,14.465,0,0,1,155.381,235.175Z" transform="translate(-94.273 -189.196)" fill="gold"/>
    <path id="Path_11" data-name="Path 11" d="M155.17,234l-28,13.343-5.494,78.981s-10.989,47.389-2.06,61.125,24.038,15.109,24.038,15.109,19.917-78.981,14.423-105.766S155.17,234,155.17,234Z" transform="translate(-93.516 -189.143)"/>
    <path id="Path_12" data-name="Path 12" d="M101.762,358.8v10.3s-4.121,22.664,8.928,21.977,6.868-24.724,6.868-24.724l-4.121-7.555Z" transform="translate(-92.833 -194.833)" fill="#ffb8b8"/>
    <path id="Path_13" data-name="Path 13" d="M227.751,380.321,226.377,392s6.868,23.351-6.181,24.038-3.577-23.894-3.577-23.894l4.264-13.192Z" transform="translate(-97.946 -195.751)" fill="#ffb8b8"/>
    <path id="Path_14" data-name="Path 14" d="M181.918,238.085h0a80.883,80.883,0,0,1,33.823,17.582l.119.1-9.615,50.823-1.374,18.543s25.411,90.657-4.121,77.607c0,0-25.411-78.981-21.977-115.381S181.918,238.085,181.918,238.085Z" transform="translate(-96.358 -189.329)"/>
    <path id="Path_15" data-name="Path 15" d="M207.972,255.888c.687-.687,8.928.954,8.928.954s15.109,53.3,15.109,62.23,2.06,59.751,2.06,59.751l-18.129,1.827-14.674-70.613Z" transform="translate(-97.398 -190.133)"/>
    <path id="Path_16" data-name="Path 16" d="M130.9,247.981h-4.808s-13.736,5.494-14.423,11.675-19.23,68.679-19.23,68.679l4.808,31.592,17.857-2.747,3.434-35.026,17.857-38.46Z" transform="translate(-92.436 -189.78)"/>
    <path id="Path_17" data-name="Path 17" d="M172.6,217.41l.711-4.956c.166-1.155.842-2.674,1.966-2.36.956.267,3.039,1.086,3.387.839,1.306-.925,3.282.692,4.655-.129.575-.344.951-1.082,1.619-1.131a1.845,1.845,0,0,1,1.189.539,8.09,8.09,0,0,0,3.077,1.672,3.31,3.31,0,0,0,3.239-.883,1.72,1.72,0,0,1,.573-.549,1.285,1.285,0,0,1,.824.038l1.244,2.3c1.044-3.786,2.65-9.187.461-12.447-1.423-1.932-5.055-7.185-7.016-8.568-2.173-1.653-.9-1.754-3.933-3-2.451-1.734-6.121-1.049-9.061-1.66-2.959-.449-12.185,2.959-12.535,1.936-.422.384-4.416,2.829-5.389,5.98a16.235,16.235,0,0,0-3.427,6.312c-1.768,5.073-3.053,10.89-.541,15.638.285.538,4.044,9.423,4.545,9.77,1.693,1.171.591-1.663,1.8,0,.951,1.3.773-3.688,2.187-2.592a3.525,3.525,0,0,0,3.836.173c.586-.407.4-2.664.081-4.737a2.442,2.442,0,0,1,2.971-2.748C170.832,217.266,172.572,217.62,172.6,217.41Z" transform="translate(-95.163 -187)"/>
    <path id="Path_18" data-name="Path 18" d="M117.655,134.02l7.554,62.5H120.4Z" transform="translate(-5.364 -6.11)" opacity="0.2"/>
    <path id="Path_19" data-name="Path 19" d="M34,108.834l-3.82,24.038,7.253-24.038H34Z" transform="translate(-1.376 -4.962)" opacity="0.2"/>
    <path id="Path_25" data-name="Path 25" d="M560.535,534.385l4.9-1.587,2.484-1.518.69-1.242-5.037.483h-3.312l-2.484-.483-1.035.483-1.587,1.1v1.518l2.208,1.242Z" transform="translate(-475.654 -491)" stroke="#000" stroke-width="1"/>
  </g>
</svg>
