<svg xmlns="http://www.w3.org/2000/svg" width="330" height="90" viewBox="0 0 330 90">
  <g id="skill" transform="translate(-228 -701.87)">
    <text id="Data_Entry" data-name="Data Entry" transform="translate(228 701.87)" fill="#353535" font-size="13" font-family="SegoeUI, Segoe UI"><tspan x="0" y="14">Data Entry</tspan></text>
    <text id="Graphic_Design" data-name="Graphic Design" transform="translate(228 723.87)" fill="#353535" font-size="13" font-family="SegoeUI, Segoe UI"><tspan x="0" y="14">Graphic Design</tspan></text>
    <text id="Web_Programming" data-name="Web Programming" transform="translate(228 747.87)" fill="#353535" font-size="13" font-family="SegoeUI, Segoe UI"><tspan x="0" y="14">Web Programming</tspan></text>
    <text id="UI_UX_Design" data-name="UI/UX Design" transform="translate(228 770.87)" fill="#353535" font-size="13" font-family="SegoeUI, Segoe UI"><tspan x="0" y="14">UI/UX Design</tspan></text>
    <circle id="Ellipse_4" data-name="Ellipse 4" cx="6" cy="6" r="6" transform="translate(450 704.87)" fill="#f2c202"/>
    <circle id="Ellipse_4-2" data-name="Ellipse 4" cx="6" cy="6" r="6" transform="translate(471 704.87)" fill="#f2c202"/>
    <circle id="Ellipse_4-3" data-name="Ellipse 4" cx="6" cy="6" r="6" transform="translate(491 704.87)" fill="#f2c202"/>
    <circle id="Ellipse_4-4" data-name="Ellipse 4" cx="6" cy="6" r="6" transform="translate(512 704.87)" fill="#f2c202"/>
    <circle id="Ellipse_4-5" data-name="Ellipse 4" cx="6" cy="6" r="6" transform="translate(532 704.87)" fill="#353535"/>
    <circle id="Ellipse_4-6" data-name="Ellipse 4" cx="6" cy="6" r="6" transform="translate(450 727.87)" fill="#f2c202"/>
    <circle id="Ellipse_4-7" data-name="Ellipse 4" cx="6" cy="6" r="6" transform="translate(471 727.87)" fill="#f2c202"/>
    <circle id="Ellipse_4-8" data-name="Ellipse 4" cx="6" cy="6" r="6" transform="translate(491 727.87)" fill="#f2c202"/>
    <circle id="Ellipse_4-9" data-name="Ellipse 4" cx="6" cy="6" r="6" transform="translate(512 727.87)" fill="#f2c202"/>
    <circle id="Ellipse_4-10" data-name="Ellipse 4" cx="6" cy="6" r="6" transform="translate(532 727.87)" fill="#353535"/>
    <circle id="Ellipse_4-11" data-name="Ellipse 4" cx="6" cy="6" r="6" transform="translate(450 751.87)" fill="#f2c202"/>
    <circle id="Ellipse_4-12" data-name="Ellipse 4" cx="6" cy="6" r="6" transform="translate(471 751.87)" fill="#f2c202"/>
    <circle id="Ellipse_4-13" data-name="Ellipse 4" cx="6" cy="6" r="6" transform="translate(491 751.87)" fill="#f2c202"/>
    <circle id="Ellipse_4-14" data-name="Ellipse 4" cx="6" cy="6" r="6" transform="translate(512 751.87)" fill="#353535"/>
    <circle id="Ellipse_4-15" data-name="Ellipse 4" cx="6" cy="6" r="6" transform="translate(532 751.87)" fill="#353535"/>
    <circle id="Ellipse_4-16" data-name="Ellipse 4" cx="6" cy="6" r="6" transform="translate(450 774.87)" fill="#f2c202"/>
    <circle id="Ellipse_4-17" data-name="Ellipse 4" cx="6" cy="6" r="6" transform="translate(471 774.87)" fill="#f2c202"/>
    <circle id="Ellipse_4-18" data-name="Ellipse 4" cx="6" cy="6" r="6" transform="translate(491 774.87)" fill="#353535"/>
    <circle id="Ellipse_4-19" data-name="Ellipse 4" cx="6" cy="6" r="6" transform="translate(512 774.87)" fill="#353535"/>
    <circle id="Ellipse_4-20" data-name="Ellipse 4" cx="6" cy="6" r="6" transform="translate(532 774.87)" fill="#353535"/>
    <text id="_1" data-name="1" transform="translate(441.539 715.308)" fill="#353535" font-size="10" font-family="SegoeUI-Semibold, Segoe UI" font-weight="600"><tspan x="-2.012" y="0">1</tspan></text>
    <text id="_1-2" data-name="1" transform="translate(441.539 738.308)" fill="#353535" font-size="10" font-family="SegoeUI-Semibold, Segoe UI" font-weight="600"><tspan x="-2.012" y="0">1</tspan></text>
    <text id="_1-3" data-name="1" transform="translate(441.539 761.308)" fill="#353535" font-size="10" font-family="SegoeUI-Semibold, Segoe UI" font-weight="600"><tspan x="-2.012" y="0">1</tspan></text>
    <text id="_1-4" data-name="1" transform="translate(441.539 784.308)" fill="#353535" font-size="10" font-family="SegoeUI-Semibold, Segoe UI" font-weight="600"><tspan x="-2.012" y="0">1</tspan></text>
    <text id="_5" data-name="5" transform="translate(553.935 715.308)" fill="#353535" font-size="10" font-family="SegoeUI-Semibold, Segoe UI" font-weight="600"><tspan x="-2.776" y="0">5</tspan></text>
    <text id="_5-2" data-name="5" transform="translate(553.935 738.308)" fill="#353535" font-size="10" font-family="SegoeUI-Semibold, Segoe UI" font-weight="600"><tspan x="-2.776" y="0">5</tspan></text>
    <text id="_5-3" data-name="5" transform="translate(553.935 761.308)" fill="#353535" font-size="10" font-family="SegoeUI-Semibold, Segoe UI" font-weight="600"><tspan x="-2.776" y="0">5</tspan></text>
    <text id="_5-4" data-name="5" transform="translate(553.935 784.308)" fill="#353535" font-size="10" font-family="SegoeUI-Semibold, Segoe UI" font-weight="600"><tspan x="-2.776" y="0">5</tspan></text>
  </g>
</svg>
